<mxfile host="app.diagrams.net" modified="2021-08-19T07:21:43.058Z" agent="5.0 (Windows NT 10.0; Win64; x64) AppleWebKit/537.36 (KHTML, like Gecko) Chrome/92.0.4515.131 Safari/537.36" etag="lgWfvooq1Z38kY-O9LrE" version="14.9.6" type="github">
  <diagram id="_CGR1CGoYscOPz65IFlm" name="Page-1">
    <mxGraphModel dx="1346" dy="1027" grid="1" gridSize="10" guides="1" tooltips="1" connect="1" arrows="1" fold="1" page="1" pageScale="1" pageWidth="850" pageHeight="1100" background="none" math="0" shadow="0">
      <root>
        <mxCell id="0" />
        <mxCell id="1" parent="0" />
        <mxCell id="EuoBLm0oWA8WIuGsaPAw-5" value="&lt;div style=&quot;&quot;&gt;&lt;span&gt;InputManager&lt;/span&gt;&lt;/div&gt;" style="rounded=0;whiteSpace=wrap;html=1;align=center;labelPosition=center;verticalLabelPosition=middle;verticalAlign=top;fillColor=#dae8fc;strokeColor=#6c8ebf;" parent="1" vertex="1">
          <mxGeometry x="200" y="480" width="440" height="280" as="geometry" />
        </mxCell>
        <mxCell id="EuoBLm0oWA8WIuGsaPAw-6" value="InputReaderThread" style="rounded=1;whiteSpace=wrap;html=1;verticalAlign=top;" parent="1" vertex="1">
          <mxGeometry x="220" y="520" width="180" height="120" as="geometry" />
        </mxCell>
        <mxCell id="EuoBLm0oWA8WIuGsaPAw-7" value="InputDispatcherThread" style="rounded=1;whiteSpace=wrap;html=1;verticalAlign=top;" parent="1" vertex="1">
          <mxGeometry x="440" y="520" width="180" height="120" as="geometry" />
        </mxCell>
        <mxCell id="EuoBLm0oWA8WIuGsaPAw-8" value="EventHub" style="rounded=0;whiteSpace=wrap;html=1;fillColor=#ffe6cc;strokeColor=#d79b00;" parent="1" vertex="1">
          <mxGeometry x="360" y="680" width="120" height="60" as="geometry" />
        </mxCell>
        <mxCell id="EuoBLm0oWA8WIuGsaPAw-9" value="InputReader" style="rounded=0;whiteSpace=wrap;html=1;fillColor=#ffe6cc;strokeColor=#d79b00;" parent="1" vertex="1">
          <mxGeometry x="250" y="570" width="120" height="60" as="geometry" />
        </mxCell>
        <mxCell id="EuoBLm0oWA8WIuGsaPAw-10" value="InputDispatcher" style="rounded=0;whiteSpace=wrap;html=1;fillColor=#ffe6cc;strokeColor=#d79b00;" parent="1" vertex="1">
          <mxGeometry x="470" y="570" width="120" height="60" as="geometry" />
        </mxCell>
        <mxCell id="EuoBLm0oWA8WIuGsaPAw-12" value="" style="endArrow=none;dashed=1;html=1;" parent="1" edge="1">
          <mxGeometry width="50" height="50" relative="1" as="geometry">
            <mxPoint x="80" y="440" as="sourcePoint" />
            <mxPoint x="760" y="440" as="targetPoint" />
          </mxGeometry>
        </mxCell>
        <mxCell id="EuoBLm0oWA8WIuGsaPAw-13" value="Native" style="text;html=1;strokeColor=none;fillColor=none;align=center;verticalAlign=middle;whiteSpace=wrap;rounded=0;" parent="1" vertex="1">
          <mxGeometry x="80" y="610" width="40" height="20" as="geometry" />
        </mxCell>
        <mxCell id="EuoBLm0oWA8WIuGsaPAw-14" value="" style="endArrow=none;dashed=1;html=1;" parent="1" edge="1">
          <mxGeometry width="50" height="50" relative="1" as="geometry">
            <mxPoint x="80" y="800" as="sourcePoint" />
            <mxPoint x="760" y="800" as="targetPoint" />
          </mxGeometry>
        </mxCell>
        <mxCell id="fConSc9U6NI2M6i-qQ_Q-1" value="设备节点" style="rounded=0;whiteSpace=wrap;html=1;labelBackgroundColor=none;align=center;verticalAlign=middle;fillColor=#ffe6cc;strokeColor=#d79b00;" vertex="1" parent="1">
          <mxGeometry x="360" y="830" width="120" height="60" as="geometry" />
        </mxCell>
        <mxCell id="fConSc9U6NI2M6i-qQ_Q-2" value="Linux" style="text;html=1;align=center;verticalAlign=middle;resizable=0;points=[];autosize=1;strokeColor=none;" vertex="1" parent="1">
          <mxGeometry x="80" y="850" width="40" height="20" as="geometry" />
        </mxCell>
        <mxCell id="fConSc9U6NI2M6i-qQ_Q-3" value="NativeInputManager" style="rounded=0;whiteSpace=wrap;html=1;labelBackgroundColor=none;align=center;verticalAlign=middle;fillColor=#ffe6cc;strokeColor=#d79b00;" vertex="1" parent="1">
          <mxGeometry x="345" y="350" width="160" height="60" as="geometry" />
        </mxCell>
        <mxCell id="fConSc9U6NI2M6i-qQ_Q-4" value="InputMangerService" style="rounded=0;whiteSpace=wrap;html=1;labelBackgroundColor=none;align=center;verticalAlign=middle;fillColor=#ffe6cc;strokeColor=#d79b00;" vertex="1" parent="1">
          <mxGeometry x="345" y="220" width="160" height="60" as="geometry" />
        </mxCell>
        <mxCell id="fConSc9U6NI2M6i-qQ_Q-6" value="" style="endArrow=none;dashed=1;html=1;" edge="1" parent="1">
          <mxGeometry width="50" height="50" relative="1" as="geometry">
            <mxPoint x="85" y="320" as="sourcePoint" />
            <mxPoint x="765" y="320" as="targetPoint" />
          </mxGeometry>
        </mxCell>
        <mxCell id="fConSc9U6NI2M6i-qQ_Q-7" value="JNI" style="text;html=1;align=center;verticalAlign=middle;resizable=0;points=[];autosize=1;strokeColor=none;" vertex="1" parent="1">
          <mxGeometry x="80" y="370" width="30" height="20" as="geometry" />
        </mxCell>
        <mxCell id="fConSc9U6NI2M6i-qQ_Q-8" value="FrameWork" style="text;html=1;align=center;verticalAlign=middle;resizable=0;points=[];autosize=1;strokeColor=none;" vertex="1" parent="1">
          <mxGeometry x="80" y="250" width="80" height="20" as="geometry" />
        </mxCell>
      </root>
    </mxGraphModel>
  </diagram>
</mxfile>
